<svg xmlns="http://www.w3.org/2000/svg" version="1.1" xmlns:xlink="http://www.w3.org/1999/xlink" xmlns:svgjs="http://svgjs.dev/svgjs" width="108" height="118"><svg width="108" height="118" viewBox="0 0 108 118" fill="none" xmlns="http://www.w3.org/2000/svg">
<path d="M40.9731 117.806C38.6387 117.806 36.5582 116.309 35.8083 114.098L0.283724 8.11496C-0.671824 5.26459 0.864314 2.18473 3.71886 1.23058C6.57341 0.276423 9.65776 1.81031 10.6133 4.66069L40.9852 95.2447L71.345 4.66069C72.3005 1.81031 75.3849 0.288501 78.2394 1.23058C81.094 2.18473 82.6301 5.26459 81.6746 8.11496L46.1379 114.098C45.4001 116.309 43.3196 117.806 40.9731 117.806Z" fill="white"></path>
<path d="M67.0148 117.807C66.4463 117.807 65.8536 117.711 65.2851 117.53C62.4306 116.575 60.8945 113.496 61.85 110.645L97.3867 4.6619C98.3422 1.81152 101.427 0.289713 104.281 1.23179C107.136 2.18594 108.672 5.2658 107.716 8.11617L72.1796 114.1C71.4176 116.37 69.3008 117.807 67.0148 117.807Z" fill="white"></path>
</svg><style>@media (prefers-color-scheme: light) { :root { filter: contrast(1) brightness(0.1); } }
@media (prefers-color-scheme: dark) { :root { filter: none; } }
</style></svg>