<svg width="40" height="29" viewBox="0 0 40 29" fill="none" xmlns="http://www.w3.org/2000/svg">
<g clip-path="url(#clip0_59_462)">
<rect width="39" height="29" transform="translate(0.0712891)" fill="white"/>
<path fill-rule="evenodd" clip-rule="evenodd" d="M16.2404 2.59631C10.0514 4.31869 6.02343 7.9201 5.02177 14.1876C4.74907 15.8932 5.12993 14.6048 6.28241 13.7398C10.0453 10.9155 17.4439 11.915 18.4707 18.3675C20.5365 29.7899 6.29917 31.7675 2.08534 25.4587C1.10501 23.9923 0.456024 22.2806 0.222177 20.4009C-0.793194 12.2253 3.38331 4.94376 10.7202 1.52346C12.0776 0.890746 13.5081 0.395581 15.0475 0.0326132C15.8184 -0.124036 16.3782 0.297007 16.6365 1.00842C16.8551 1.61592 16.9297 2.28607 16.2404 2.59631ZM36.6377 2.59631C30.4487 4.31869 26.42 7.9201 25.4191 14.1876C25.1464 15.8932 25.5272 14.6048 26.6797 13.7398C30.4426 10.9155 37.8412 11.915 38.8672 18.3675C40.9338 29.7899 26.6965 31.7675 22.4826 25.4587C21.5023 23.9923 20.8533 22.2806 20.6195 20.4009C19.6041 12.2253 23.7799 4.94376 31.1175 1.52346C32.4749 0.890746 33.9046 0.395581 35.4448 0.0326132C36.2157 -0.124036 36.7755 0.297007 37.0338 1.00842C37.2524 1.61592 37.327 2.28607 36.6377 2.59631Z" fill="black" fill-opacity="0.38"/>
</g>
<defs>
<clipPath id="clip0_59_462">
<rect width="39" height="29" fill="white" transform="translate(0.0712891)"/>
</clipPath>
</defs>
</svg>
