<svg width="14" height="12" viewBox="0 0 14 12" fill="none" xmlns="http://www.w3.org/2000/svg">
<g clip-path="url(#clip0_177_3049)">
<path fill-rule="evenodd" clip-rule="evenodd" d="M0.333313 5.99935C0.333313 5.53911 0.706409 5.16602 1.16665 5.16602H12.8333C13.2936 5.16602 13.6666 5.53911 13.6666 5.99935C13.6666 6.45959 13.2936 6.83268 12.8333 6.83268H1.16665C0.706409 6.83268 0.333313 6.45959 0.333313 5.99935Z" fill="#070707"/>
<path fill-rule="evenodd" clip-rule="evenodd" d="M13.4226 5.41009C13.748 5.73553 13.748 6.26317 13.4226 6.5886L8.42259 11.5886C8.09715 11.914 7.56951 11.914 7.24408 11.5886C6.91864 11.2632 6.91864 10.7355 7.24408 10.4101L12.2441 5.41009C12.5695 5.08466 13.0972 5.08466 13.4226 5.41009Z" fill="#070707"/>
<path fill-rule="evenodd" clip-rule="evenodd" d="M7.24408 0.410093C7.56951 0.0846564 8.09715 0.0846564 8.42259 0.410093L13.4226 5.41009C13.748 5.73553 13.748 6.26317 13.4226 6.5886C13.0972 6.91404 12.5695 6.91404 12.2441 6.5886L7.24408 1.5886C6.91864 1.26317 6.91864 0.73553 7.24408 0.410093Z" fill="#070707"/>
</g>
<defs>
<clipPath id="clip0_177_3049">
<rect width="14" height="12" fill="white"/>
</clipPath>
</defs>
</svg>
