<svg width="157" height="35" viewBox="0 0 157 35" fill="none" xmlns="http://www.w3.org/2000/svg">
<g clip-path="url(#clip0_177_3053)">
<path d="M12.1847 34.7519C11.4905 34.7519 10.8718 34.3065 10.6488 33.6492L0.0843746 2.13155C-0.199789 1.2839 0.257032 0.368 1.10593 0.0842515C1.95482 -0.199497 2.87206 0.256656 3.15622 1.10431L12.1883 28.0425L21.2168 1.10431C21.501 0.256656 22.4182 -0.195905 23.2671 0.0842515C24.116 0.368 24.5728 1.2839 24.2886 2.13155L13.7206 33.6492C13.5012 34.3065 12.8825 34.7519 12.1847 34.7519Z" fill="white"/>
<path d="M19.9291 34.7524C19.76 34.7524 19.5838 34.7237 19.4147 34.6698C18.5658 34.3861 18.109 33.4702 18.3932 32.6225L28.9612 1.10488C29.2453 0.257227 30.1626 -0.195334 31.0115 0.0848225C31.8603 0.368571 32.3172 1.28447 32.033 2.13212L21.465 33.6498C21.2384 34.325 20.6089 34.7524 19.9291 34.7524Z" fill="white"/>
<path d="M50.1833 20.5917C49.7444 20.5917 49.3451 20.3259 49.1833 19.9164L44.0791 7.2627C43.8561 6.70957 44.1223 6.08101 44.6762 5.86191C45.2302 5.63922 45.856 5.9086 46.0791 6.45814L50.1833 16.63L54.2874 6.45814C54.5105 5.90501 55.1399 5.63922 55.6903 5.86191C56.2442 6.0846 56.5104 6.71316 56.2874 7.2627L51.1832 19.9164C51.0178 20.3223 50.6221 20.5917 50.1833 20.5917Z" fill="white"/>
<path d="M93.9085 20.8506C93.4768 20.8506 93.0704 20.592 92.9049 20.1682L88.8043 9.79519L84.7037 20.1682C84.4843 20.7213 83.8584 20.9943 83.3045 20.7752C82.7505 20.5561 82.4772 19.9311 82.6966 19.378L87.8007 6.46564C87.9626 6.05259 88.3619 5.7832 88.8043 5.7832C89.2467 5.7832 89.646 6.05259 89.8079 6.46564L94.912 19.378C95.1314 19.9311 94.8581 20.5561 94.3041 20.7752C94.1746 20.8255 94.0416 20.8506 93.9085 20.8506Z" fill="white"/>
<path d="M108.656 20.5915C108.174 20.5915 107.753 20.2718 107.62 19.8121L105.016 10.7644L102.412 19.8121C102.279 20.2754 101.854 20.5915 101.376 20.5915C100.897 20.5915 100.473 20.2718 100.34 19.8121L96.6997 7.15829C96.5343 6.5872 96.8652 5.99097 97.4371 5.82575C98.009 5.66053 98.6062 5.99097 98.7716 6.56565L101.376 15.6133L103.98 6.56565C104.113 6.10232 104.538 5.78624 105.016 5.78624C105.494 5.78624 105.919 6.10591 106.052 6.56565L108.656 15.6133L111.26 6.56565C111.426 5.99456 112.023 5.66412 112.595 5.82575C113.167 5.99097 113.498 6.5872 113.332 7.15829L109.692 19.8121C109.559 20.2754 109.135 20.5915 108.656 20.5915Z" fill="white"/>
<path d="M67.4201 20.9363H59.1434C58.5463 20.9363 58.0643 20.455 58.0643 19.8588C58.0643 19.2625 58.5463 18.7812 59.1434 18.7812H67.4201C68.0172 18.7812 68.4992 19.2625 68.4992 19.8588C68.4992 20.455 68.0172 20.9363 67.4201 20.9363Z" fill="white"/>
<path d="M67.4201 8.1863H59.1434C58.5463 8.1863 58.0643 7.70501 58.0643 7.10878C58.0643 6.51255 58.5463 6.03125 59.1434 6.03125H67.4201C68.0172 6.03125 68.4992 6.51255 68.4992 7.10878C68.4992 7.70501 68.0172 8.1863 67.4201 8.1863Z" fill="white"/>
<path d="M66.7475 14.5086H59.8088C59.2117 14.5086 58.7297 14.0273 58.7297 13.431C58.7297 12.8348 59.2117 12.3535 59.8088 12.3535H66.7475C67.3446 12.3535 67.8266 12.8348 67.8266 13.431C67.8266 14.0273 67.3446 14.5086 66.7475 14.5086Z" fill="white"/>
<path d="M71.697 20.9368C71.0999 20.9368 70.6179 20.4555 70.6179 19.8593V6.86073C70.6179 6.2645 71.0999 5.7832 71.697 5.7832H75.1609C77.7579 5.7832 79.873 7.89515 79.873 10.4884C79.873 13.0816 77.7831 15.1649 75.2148 15.1936L72.7797 15.2223V19.8629C72.7797 20.4591 72.2977 20.9404 71.7006 20.9404L71.697 20.9368ZM72.7761 7.93826V13.0637L75.1897 13.035C76.5817 13.0206 77.7148 11.8748 77.7148 10.4848C77.7148 9.0948 76.5709 7.93466 75.1609 7.93466H72.7761V7.93826Z" fill="white"/>
<path d="M79.5312 20.8497C79.1787 20.8497 78.8298 20.6773 78.6248 20.3577L74.9235 14.636C74.5997 14.1368 74.7436 13.4687 75.2436 13.1454C75.7436 12.8222 76.4126 12.9658 76.7363 13.4651L80.4377 19.1868C80.7614 19.686 80.6175 20.3541 80.1175 20.6773C79.9377 20.7923 79.7327 20.8497 79.5348 20.8497H79.5312Z" fill="white"/>
<path d="M120.814 20.7788C116.76 20.7788 113.462 17.4852 113.462 13.4373C113.462 9.38934 116.76 6.0957 120.814 6.0957C124.868 6.0957 128.166 9.38934 128.166 13.4373C128.166 17.4852 124.868 20.7788 120.814 20.7788ZM120.814 8.24716C117.951 8.24716 115.62 10.5746 115.62 13.4337C115.62 16.2927 117.951 18.6202 120.814 18.6202C123.677 18.6202 126.008 16.2927 126.008 13.4337C126.008 10.5746 123.677 8.24716 120.814 8.24716Z" fill="white"/>
<path d="M137.047 20.7788C132.994 20.7788 129.695 17.4852 129.695 13.4373C129.695 9.38934 132.994 6.0957 137.047 6.0957C141.101 6.0957 144.4 9.38934 144.4 13.4373C144.4 17.4852 141.101 20.7788 137.047 20.7788ZM137.047 8.24716C134.184 8.24716 131.853 10.5746 131.853 13.4337C131.853 16.2927 134.184 18.6202 137.047 18.6202C139.911 18.6202 142.241 16.2927 142.241 13.4337C142.241 10.5746 139.911 8.24716 137.047 8.24716Z" fill="white"/>
<path d="M149.648 20.7785H147.004C146.407 20.7785 145.925 20.2972 145.925 19.701V7.16932C145.925 6.57309 146.407 6.0918 147.004 6.0918H149.648C153.702 6.0918 157 9.38543 157 13.4333C157 17.4813 153.702 20.7749 149.648 20.7749V20.7785ZM148.083 18.6234H149.648C152.511 18.6234 154.842 16.296 154.842 13.4369C154.842 10.5779 152.511 8.25044 149.648 8.25044H148.083V18.627V18.6234Z" fill="white"/>
<path d="M58.4816 25.8798C58.3952 25.7721 58.2873 25.6931 58.1578 25.6356C58.0284 25.5781 57.8845 25.5494 57.7154 25.5494C57.5464 25.5494 57.3917 25.5817 57.2514 25.6464C57.1075 25.711 56.9852 25.8008 56.8809 25.9157C56.7766 26.0307 56.6939 26.1708 56.6363 26.3288C56.5788 26.4868 56.5464 26.6592 56.5464 26.846C56.5464 27.0328 56.5752 27.2088 56.6363 27.3668C56.6939 27.5249 56.7766 27.6613 56.8773 27.7763C56.9816 27.8912 57.1003 27.981 57.2406 28.0457C57.3809 28.1103 57.5284 28.1426 57.6866 28.1426C57.8701 28.1426 58.0319 28.1031 58.1722 28.0277C58.3125 27.9523 58.4276 27.8445 58.5211 27.708L59.2621 28.2612C59.0895 28.5018 58.8736 28.6778 58.6111 28.7892C58.3485 28.9041 58.0787 28.9616 57.8017 28.9616C57.4852 28.9616 57.1938 28.9113 56.9313 28.8143C56.6651 28.7173 56.4349 28.5736 56.2406 28.3905C56.0464 28.2073 55.8953 27.9846 55.7874 27.7224C55.6795 27.4602 55.6255 27.1693 55.6255 26.846C55.6255 26.5228 55.6795 26.2318 55.7874 25.9696C55.8953 25.7074 56.0464 25.4847 56.2406 25.3016C56.4349 25.1184 56.6651 24.9747 56.9313 24.8777C57.1974 24.7808 57.4888 24.7305 57.8017 24.7305C57.9168 24.7305 58.0355 24.7412 58.1578 24.7628C58.2801 24.7843 58.4024 24.8167 58.5211 24.8634C58.6398 24.9101 58.7549 24.9711 58.8665 25.0465C58.978 25.122 59.0751 25.2154 59.1614 25.3267L58.478 25.8834L58.4816 25.8798Z" fill="white"/>
<path d="M63.1757 26.846C63.1757 26.5228 63.2296 26.2318 63.3375 25.9696C63.4454 25.7074 63.5965 25.4847 63.7907 25.3016C63.985 25.1184 64.2152 24.9747 64.4814 24.8777C64.7476 24.7808 65.0389 24.7305 65.3518 24.7305C65.6648 24.7305 65.9597 24.7808 66.2259 24.8777C66.4921 24.9783 66.7223 25.1184 66.9165 25.3016C67.1108 25.4847 67.2619 25.7074 67.3698 25.9696C67.4777 26.2318 67.5316 26.5228 67.5316 26.846C67.5316 27.1693 67.4777 27.4602 67.3698 27.7224C67.2619 27.9846 67.1108 28.2073 66.9165 28.3905C66.7223 28.5736 66.4921 28.7173 66.2259 28.8143C65.9597 28.9113 65.6684 28.9616 65.3518 28.9616C65.0353 28.9616 64.744 28.9113 64.4814 28.8143C64.2152 28.7173 63.985 28.5736 63.7907 28.3905C63.5965 28.2073 63.4454 27.9846 63.3375 27.7224C63.2296 27.4602 63.1757 27.1693 63.1757 26.846ZM64.1001 26.846C64.1001 27.0364 64.1289 27.2088 64.19 27.3668C64.2476 27.5249 64.3339 27.6613 64.4454 27.7763C64.5569 27.8912 64.6864 27.981 64.8411 28.0457C64.9957 28.1103 65.1684 28.1426 65.3554 28.1426C65.5425 28.1426 65.7187 28.1103 65.8698 28.0457C66.0245 27.981 66.154 27.8912 66.2655 27.7763C66.377 27.6613 66.4597 27.5249 66.5209 27.3668C66.5784 27.2088 66.6108 27.0364 66.6108 26.846C66.6108 26.6557 66.582 26.4868 66.5209 26.3288C66.4633 26.1708 66.377 26.0307 66.2655 25.9157C66.154 25.8008 66.0245 25.711 65.8698 25.6464C65.7151 25.5817 65.5425 25.5494 65.3554 25.5494C65.1684 25.5494 64.9921 25.5817 64.8411 25.6464C64.6864 25.711 64.5569 25.8008 64.4454 25.9157C64.3339 26.0307 64.2512 26.1708 64.19 26.3288C64.1325 26.4868 64.1001 26.6592 64.1001 26.846Z" fill="white"/>
<path d="M72.5782 24.8301H73.7868L75.5026 27.6316H75.5134V24.8301H76.4019V28.86H75.24L73.4775 25.9902H73.4667V28.86H72.5782V24.8301Z" fill="white"/>
<path d="M83.1822 25.8158C83.1103 25.726 83.0132 25.6578 82.8873 25.6147C82.765 25.5716 82.6463 25.55 82.5384 25.55C82.4736 25.55 82.4089 25.5572 82.3405 25.5716C82.2722 25.5859 82.2074 25.6111 82.1463 25.6434C82.0851 25.6757 82.0348 25.7188 81.9988 25.7727C81.9592 25.8266 81.9412 25.8912 81.9412 25.9667C81.9412 26.0888 81.988 26.1822 82.0779 26.2468C82.1679 26.3115 82.283 26.3653 82.4232 26.412C82.5635 26.4587 82.711 26.5018 82.8693 26.5485C83.0275 26.5952 83.1786 26.6599 83.3153 26.7425C83.452 26.8251 83.5707 26.9364 83.6606 27.0765C83.7505 27.2166 83.7973 27.407 83.7973 27.6404C83.7973 27.8739 83.7541 28.0607 83.6714 28.2259C83.5887 28.3911 83.4736 28.5312 83.3333 28.6425C83.1894 28.7539 83.0239 28.8329 82.8369 28.8868C82.6499 28.9406 82.4484 28.9658 82.2398 28.9658C81.9772 28.9658 81.7326 28.9263 81.5096 28.8473C81.2866 28.7682 81.0744 28.6389 80.8837 28.4593L81.5168 27.7661C81.6067 27.8883 81.7218 27.9816 81.8621 28.0499C82.0024 28.1181 82.1427 28.1504 82.2938 28.1504C82.3657 28.1504 82.4376 28.1433 82.5132 28.1253C82.5887 28.1074 82.6535 28.0822 82.711 28.0499C82.7686 28.014 82.8189 27.9709 82.8549 27.917C82.8909 27.8631 82.9088 27.802 82.9088 27.7302C82.9088 27.6081 82.8621 27.5111 82.7686 27.4429C82.675 27.371 82.5599 27.3136 82.4161 27.2633C82.2758 27.213 82.1247 27.1663 81.9592 27.116C81.7974 27.0657 81.6427 27.0011 81.5024 26.9185C81.3621 26.8359 81.2434 26.7245 81.1535 26.588C81.06 26.4516 81.0132 26.272 81.0132 26.0457C81.0132 25.8194 81.0564 25.6398 81.1427 25.4782C81.229 25.3166 81.3405 25.1801 81.4844 25.0687C81.6283 24.9574 81.7902 24.8748 81.9772 24.8209C82.1643 24.767 82.3549 24.7383 82.5527 24.7383C82.7794 24.7383 83.0024 24.7706 83.2146 24.8353C83.4268 24.8999 83.6211 25.0077 83.7901 25.1585L83.1786 25.823L83.1822 25.8158Z" fill="white"/>
<path d="M89.0813 25.6167H87.9303V24.8301H91.1244V25.6167H89.9734V28.8636H89.0849V25.6167H89.0813Z" fill="white"/>
<path d="M95.7753 24.8301H97.3364C97.5415 24.8301 97.7357 24.8516 97.9191 24.8911C98.1026 24.9306 98.2645 24.9989 98.4047 25.0887C98.545 25.1821 98.6529 25.3078 98.7357 25.4658C98.8184 25.6239 98.858 25.8214 98.858 26.0549C98.858 26.3386 98.7824 26.5829 98.6349 26.7804C98.4875 26.9779 98.2717 27.1072 97.9839 27.1575L99.009 28.86H97.9443L97.099 27.2473H96.6602V28.86H95.7717V24.8301H95.7753ZM96.6674 26.4967H97.1926C97.2717 26.4967 97.358 26.4967 97.4479 26.4895C97.5379 26.4823 97.617 26.4679 97.6889 26.4392C97.7609 26.4104 97.822 26.3673 97.8688 26.3063C97.9155 26.2452 97.9407 26.159 97.9407 26.0513C97.9407 25.9471 97.9191 25.8681 97.8796 25.807C97.84 25.746 97.7861 25.6993 97.7213 25.667C97.6566 25.6346 97.581 25.6131 97.4983 25.6023C97.4156 25.5915 97.3328 25.5843 97.2537 25.5843H96.671V26.5002L96.6674 26.4967Z" fill="white"/>
<path d="M107.074 27.3084C107.074 27.549 107.038 27.7681 106.966 27.9693C106.894 28.1704 106.786 28.3464 106.642 28.4937C106.498 28.6409 106.322 28.7559 106.11 28.8421C105.897 28.9247 105.653 28.9678 105.376 28.9678C105.099 28.9678 104.847 28.9247 104.635 28.8421C104.423 28.7595 104.243 28.6445 104.102 28.4937C103.959 28.3464 103.854 28.1704 103.779 27.9693C103.707 27.7681 103.671 27.549 103.671 27.3084V24.8301H104.559V27.2725C104.559 27.3982 104.581 27.5131 104.62 27.6209C104.66 27.7286 104.718 27.8184 104.789 27.8974C104.861 27.9765 104.948 28.0375 105.048 28.0806C105.149 28.1237 105.257 28.1453 105.376 28.1453C105.494 28.1453 105.602 28.1237 105.699 28.0806C105.797 28.0375 105.883 27.9765 105.955 27.8974C106.027 27.8184 106.084 27.7286 106.124 27.6209C106.164 27.5131 106.185 27.3982 106.185 27.2725V24.8301H107.074V27.3084Z" fill="white"/>
<path d="M114.411 25.8798C114.325 25.7721 114.217 25.6931 114.088 25.6356C113.962 25.5781 113.814 25.5494 113.645 25.5494C113.476 25.5494 113.322 25.5817 113.181 25.6464C113.037 25.711 112.915 25.8008 112.811 25.9157C112.706 26.0307 112.624 26.1708 112.566 26.3288C112.509 26.4868 112.476 26.6592 112.476 26.846C112.476 27.0328 112.505 27.2088 112.566 27.3668C112.627 27.5249 112.706 27.6613 112.807 27.7763C112.908 27.8912 113.03 27.981 113.17 28.0457C113.311 28.1103 113.458 28.1426 113.62 28.1426C113.804 28.1426 113.965 28.1031 114.106 28.0277C114.246 27.9523 114.361 27.8445 114.455 27.708L115.196 28.2612C115.023 28.5018 114.807 28.6778 114.545 28.7892C114.282 28.9041 114.012 28.9616 113.735 28.9616C113.419 28.9616 113.127 28.9113 112.865 28.8143C112.599 28.7173 112.368 28.5736 112.174 28.3905C111.98 28.2073 111.829 27.9846 111.721 27.7224C111.613 27.4602 111.559 27.1693 111.559 26.846C111.559 26.5228 111.613 26.2318 111.721 25.9696C111.829 25.7074 111.98 25.4847 112.174 25.3016C112.368 25.1184 112.599 24.9747 112.865 24.8777C113.131 24.7808 113.422 24.7305 113.735 24.7305C113.85 24.7305 113.969 24.7412 114.091 24.7628C114.214 24.7843 114.336 24.8167 114.455 24.8634C114.573 24.9101 114.688 24.9711 114.8 25.0465C114.911 25.122 115.009 25.2154 115.095 25.3267L114.411 25.8834V25.8798Z" fill="white"/>
<path d="M120.429 25.6167H119.278V24.8301H122.472V25.6167H121.321V28.8636H120.433V25.6167H120.429Z" fill="white"/>
<path d="M127.609 28.077H128.109V28.8636H126.22V28.077H126.72V25.6167H126.22V24.8301H128.109V25.6167H127.609V28.077Z" fill="white"/>
<path d="M132.364 26.846C132.364 26.5228 132.418 26.2318 132.526 25.9696C132.634 25.7074 132.785 25.4847 132.979 25.3016C133.173 25.1184 133.404 24.9747 133.67 24.8777C133.936 24.7808 134.227 24.7305 134.54 24.7305C134.853 24.7305 135.148 24.7808 135.411 24.8777C135.677 24.9783 135.907 25.1184 136.101 25.3016C136.296 25.4847 136.447 25.7074 136.555 25.9696C136.663 26.2318 136.717 26.5228 136.717 26.846C136.717 27.1693 136.663 27.4602 136.555 27.7224C136.447 27.9846 136.296 28.2073 136.101 28.3905C135.907 28.5736 135.677 28.7173 135.411 28.8143C135.145 28.9113 134.853 28.9616 134.54 28.9616C134.227 28.9616 133.932 28.9113 133.67 28.8143C133.404 28.7173 133.173 28.5736 132.979 28.3905C132.785 28.2073 132.634 27.9846 132.526 27.7224C132.418 27.4602 132.364 27.1693 132.364 26.846ZM133.289 26.846C133.289 27.0364 133.317 27.2088 133.378 27.3668C133.44 27.5249 133.522 27.6613 133.634 27.7763C133.745 27.8912 133.875 27.981 134.03 28.0457C134.184 28.1103 134.357 28.1426 134.544 28.1426C134.731 28.1426 134.907 28.1103 135.058 28.0457C135.209 27.981 135.342 27.8912 135.454 27.7763C135.565 27.6613 135.648 27.5249 135.709 27.3668C135.771 27.2088 135.799 27.0364 135.799 26.846C135.799 26.6557 135.771 26.4868 135.709 26.3288C135.652 26.1708 135.565 26.0307 135.454 25.9157C135.342 25.8008 135.213 25.711 135.058 25.6464C134.904 25.5817 134.731 25.5494 134.544 25.5494C134.357 25.5494 134.181 25.5817 134.03 25.6464C133.875 25.711 133.745 25.8008 133.634 25.9157C133.522 26.0307 133.44 26.1708 133.378 26.3288C133.321 26.4868 133.289 26.6592 133.289 26.846Z" fill="white"/>
<path d="M141.551 24.8301H142.759L144.475 27.6316H144.486V24.8301H145.375V28.86H144.213L142.45 25.9902H142.439V28.86H141.551V24.8301Z" fill="white"/>
</g>
<defs>
<clipPath id="clip0_177_3053">
<rect width="157" height="34.7519" fill="white"/>
</clipPath>
</defs>
</svg>
