<svg width="129" height="22" viewBox="0 0 129 22" fill="none" xmlns="http://www.w3.org/2000/svg">
<path d="M15.3828 7.11475L20.9688 7.93506C21.4375 8.01318 21.8281 8.32568 21.9844 8.79443C22.1406 9.22412 22.0234 9.73193 21.6719 10.0444L17.6094 14.0679L18.5859 19.771C18.6641 20.2397 18.4688 20.7085 18.0781 20.9819C17.6875 21.2944 17.1797 21.2944 16.75 21.0991L11.75 18.4038L6.71094 21.0991C6.32031 21.2944 5.77344 21.2944 5.42188 20.9819C5.03125 20.7085 4.83594 20.2397 4.91406 19.771L5.85156 14.0679L1.78906 10.0444C1.4375 9.73193 1.32031 9.22412 1.47656 8.79443C1.63281 8.32568 2.02344 8.01318 2.49219 7.93506L8.11719 7.11475L10.6172 1.91943C10.8125 1.48975 11.2422 1.21631 11.75 1.21631C12.2188 1.21631 12.6484 1.48975 12.8438 1.91943L15.3828 7.11475Z" fill="#F8BC26"/>
<path d="M41.96 7.11475L47.5459 7.93506C48.0146 8.01318 48.4053 8.32568 48.5615 8.79443C48.7178 9.22412 48.6006 9.73193 48.249 10.0444L44.1865 14.0679L45.1631 19.771C45.2412 20.2397 45.0459 20.7085 44.6553 20.9819C44.2646 21.2944 43.7568 21.2944 43.3271 21.0991L38.3271 18.4038L33.2881 21.0991C32.8975 21.2944 32.3506 21.2944 31.999 20.9819C31.6084 20.7085 31.4131 20.2397 31.4912 19.771L32.4287 14.0679L28.3662 10.0444C28.0146 9.73193 27.8975 9.22412 28.0537 8.79443C28.21 8.32568 28.6006 8.01318 29.0693 7.93506L34.6943 7.11475L37.1943 1.91943C37.3896 1.48975 37.8193 1.21631 38.3271 1.21631C38.7959 1.21631 39.2256 1.48975 39.4209 1.91943L41.96 7.11475Z" fill="#F8BC26"/>
<path d="M68.5381 7.11475L74.124 7.93506C74.5928 8.01318 74.9834 8.32568 75.1396 8.79443C75.2959 9.22412 75.1787 9.73193 74.8271 10.0444L70.7646 14.0679L71.7412 19.771C71.8193 20.2397 71.624 20.7085 71.2334 20.9819C70.8428 21.2944 70.335 21.2944 69.9053 21.0991L64.9053 18.4038L59.8662 21.0991C59.4756 21.2944 58.9287 21.2944 58.5771 20.9819C58.1865 20.7085 57.9912 20.2397 58.0693 19.771L59.0068 14.0679L54.9443 10.0444C54.5928 9.73193 54.4756 9.22412 54.6318 8.79443C54.7881 8.32568 55.1787 8.01318 55.6475 7.93506L61.2725 7.11475L63.7725 1.91943C63.9678 1.48975 64.3975 1.21631 64.9053 1.21631C65.374 1.21631 65.8037 1.48975 65.999 1.91943L68.5381 7.11475Z" fill="#F8BC26"/>
<path d="M95.1162 7.11475L100.702 7.93506C101.171 8.01318 101.562 8.32568 101.718 8.79443C101.874 9.22412 101.757 9.73193 101.405 10.0444L97.3428 14.0679L98.3193 19.771C98.3975 20.2397 98.2021 20.7085 97.8115 20.9819C97.4209 21.2944 96.9131 21.2944 96.4834 21.0991L91.4834 18.4038L86.4443 21.0991C86.0537 21.2944 85.5068 21.2944 85.1553 20.9819C84.7646 20.7085 84.5693 20.2397 84.6475 19.771L85.585 14.0679L81.5225 10.0444C81.1709 9.73193 81.0537 9.22412 81.21 8.79443C81.3662 8.32568 81.7568 8.01318 82.2256 7.93506L87.8506 7.11475L90.3506 1.91943C90.5459 1.48975 90.9756 1.21631 91.4834 1.21631C91.9521 1.21631 92.3818 1.48975 92.5771 1.91943L95.1162 7.11475Z" fill="#F8BC26"/>
<path d="M121.693 7.11475L127.279 7.93506C127.748 8.01318 128.139 8.32568 128.295 8.79443C128.451 9.22412 128.334 9.73193 127.982 10.0444L123.92 14.0679L124.896 19.771C124.975 20.2397 124.779 20.7085 124.389 20.9819C123.998 21.2944 123.49 21.2944 123.061 21.0991L118.061 18.4038L113.021 21.0991C112.631 21.2944 112.084 21.2944 111.732 20.9819C111.342 20.7085 111.146 20.2397 111.225 19.771L112.162 14.0679L108.1 10.0444C107.748 9.73193 107.631 9.22412 107.787 8.79443C107.943 8.32568 108.334 8.01318 108.803 7.93506L114.428 7.11475L116.928 1.91943C117.123 1.48975 117.553 1.21631 118.061 1.21631C118.529 1.21631 118.959 1.48975 119.154 1.91943L121.693 7.11475Z" fill="#F8BC26"/>
</svg>
